{
    "asset" : {
        "generator" : "Khronos glTF Blender I/O v1.5.17",
        "version" : "2.0"
    },
    "scene" : 0,
    "scenes" : [
        {
            "name" : "Scene",
            "nodes" : [
                0,
                1,
                2,
                3,
                4,
                5,
                6,
                7,
                8
            ]
        }
    ],
    "nodes" : [
        {
            "name" : "Area",
            "scale" : [
                4.783649444580078,
                3.554152250289917,
                3.554152250289917
            ],
            "translation" : [
                0.04284560680389404,
                4.119124412536621,
                1.545962004456669e-05
            ]
        },
        {
            "name" : "Sun",
            "rotation" : [
                0.4006998836994171,
                0.7085925936698914,
                0.07225100696086884,
                -0.576295018196106
            ],
            "translation" : [
                5.014476776123047,
                2.2700843811035156,
                -5.905670642852783
            ]
        },
        {
            "name" : "Camera",
            "rotation" : [
                0.5,
                0.5,
                -0.5,
                0.4999999701976776
            ],
            "translation" : [
                7.358891487121582,
                0.036124229431152344,
                -0.004448413848876953
            ]
        },
        {
            "name" : "Camera.001",
            "rotation" : [
                0.36980676651000977,
                0.6235714554786682,
                -0.541107714176178,
                0.42615026235580444
            ],
            "translation" : [
                5.857612133026123,
                0.9152847528457642,
                -2.2700984477996826
            ]
        },
        {
            "mesh" : 0,
            "name" : "Plane",
            "scale" : [
                15.900596618652344,
                15.900596618652344,
                15.900596618652344
            ],
            "translation" : [
                -0.2387416958808899,
                -1.4471566677093506,
                0
            ]
        },
        {
            "mesh" : 1,
            "name" : "XMLID_2_",
            "rotation" : [
                0.5,
                0.5,
                -0.5,
                0.4999999701976776
            ],
            "scale" : [
                73.30729675292969,
                73.30729675292969,
                73.30729675292969
            ],
            "translation" : [
                0.4422101080417633,
                -0.6346584558486938,
                0.6079464554786682
            ]
        },
        {
            "mesh" : 2,
            "name" : "Curve.005",
            "rotation" : [
                0.5,
                0.5,
                -0.5,
                0.4999999701976776
            ],
            "scale" : [
                73.30729675292969,
                73.30729675292969,
                73.30729675292969
            ],
            "translation" : [
                0.4422101378440857,
                0.3823540210723877,
                0.40036308765411377
            ]
        },
        {
            "mesh" : 3,
            "name" : "Curve.009",
            "rotation" : [
                0.5,
                0.5,
                -0.5,
                0.4999999701976776
            ],
            "scale" : [
                73.30729675292969,
                73.30729675292969,
                73.30729675292969
            ],
            "translation" : [
                0.4422101080417633,
                -0.6346584558486938,
                0.6079464554786682
            ]
        },
        {
            "mesh" : 4,
            "name" : "Cube.014",
            "scale" : [
                0.665772557258606,
                1,
                1
            ]
        }
    ],
    "materials" : [
        {
            "doubleSided" : true,
            "name" : "Material.015",
            "pbrMetallicRoughness" : {
                "baseColorFactor" : [
                    0.2749772071838379,
                    0.2749772071838379,
                    0.2749772071838379,
                    1
                ],
                "metallicFactor" : 0,
                "roughnessFactor" : 0.5
            }
        },
        {
            "doubleSided" : true,
            "name" : "Material.005",
            "pbrMetallicRoughness" : {
                "baseColorFactor" : [
                    0.06478545814752579,
                    0.1488097459077835,
                    0.8000000715255737,
                    1
                ],
                "metallicFactor" : 0,
                "roughnessFactor" : 0.3339920938014984
            }
        },
        {
            "doubleSided" : true,
            "name" : "Material.006",
            "pbrMetallicRoughness" : {
                "baseColorFactor" : [
                    0.8000000715255737,
                    0.12149161845445633,
                    0.025162681937217712,
                    1
                ],
                "metallicFactor" : 0,
                "roughnessFactor" : 0.3339920938014984
            }
        },
        {
            "doubleSided" : true,
            "name" : "white",
            "pbrMetallicRoughness" : {
                "baseColorFactor" : [
                    0.9999987483024597,
                    0.999998927116394,
                    1,
                    1
                ],
                "metallicFactor" : 0,
                "roughnessFactor" : 0.356436163187027
            }
        }
    ],
    "meshes" : [
        {
            "name" : "Plane",
            "primitives" : [
                {
                    "attributes" : {
                        "POSITION" : 0,
                        "NORMAL" : 1,
                        "TEXCOORD_0" : 2
                    },
                    "indices" : 3,
                    "material" : 0
                }
            ]
        },
        {
            "name" : "XMLID_2_",
            "primitives" : [
                {
                    "attributes" : {
                        "POSITION" : 4,
                        "NORMAL" : 5,
                        "TEXCOORD_0" : 6
                    },
                    "indices" : 7,
                    "material" : 1
                }
            ]
        },
        {
            "name" : "Curve.020",
            "primitives" : [
                {
                    "attributes" : {
                        "POSITION" : 8,
                        "NORMAL" : 9,
                        "TEXCOORD_0" : 10
                    },
                    "indices" : 11,
                    "material" : 1
                }
            ]
        },
        {
            "name" : "Curve.022",
            "primitives" : [
                {
                    "attributes" : {
                        "POSITION" : 12,
                        "NORMAL" : 13,
                        "TEXCOORD_0" : 14
                    },
                    "indices" : 15,
                    "material" : 2
                }
            ]
        },
        {
            "name" : "Cube.015",
            "primitives" : [
                {
                    "attributes" : {
                        "POSITION" : 16,
                        "NORMAL" : 17,
                        "TEXCOORD_0" : 18
                    },
                    "indices" : 19,
                    "material" : 3
                }
            ]
        }
    ],
    "accessors" : [
        {
            "bufferView" : 0,
            "componentType" : 5126,
            "count" : 36,
            "max" : [
                1,
                0.9243649244308472,
                0.30247604846954346
            ],
            "min" : [
                -1,
                0,
                -0.5641564130783081
            ],
            "type" : "VEC3"
        },
        {
            "bufferView" : 1,
            "componentType" : 5126,
            "count" : 36,
            "type" : "VEC3"
        },
        {
            "bufferView" : 2,
            "componentType" : 5126,
            "count" : 36,
            "type" : "VEC2"
        },
        {
            "bufferView" : 3,
            "componentType" : 5123,
            "count" : 102,
            "type" : "SCALAR"
        },
        {
            "bufferView" : 4,
            "componentType" : 5126,
            "count" : 14,
            "max" : [
                0.016933679580688477,
                0.003000000026077032,
                0
            ],
            "min" : [
                0,
                -0.003000000026077032,
                -0.008493268862366676
            ],
            "type" : "VEC3"
        },
        {
            "bufferView" : 5,
            "componentType" : 5126,
            "count" : 14,
            "type" : "VEC3"
        },
        {
            "bufferView" : 6,
            "componentType" : 5126,
            "count" : 14,
            "type" : "VEC2"
        },
        {
            "bufferView" : 7,
            "componentType" : 5123,
            "count" : 24,
            "type" : "SCALAR"
        },
        {
            "bufferView" : 8,
            "componentType" : 5126,
            "count" : 14,
            "max" : [
                0.005663375370204449,
                0.003000000026077032,
                0.005828674882650375
            ],
            "min" : [
                -0.0028316874522715807,
                -0.003000000026077032,
                -0.003056824207305908
            ],
            "type" : "VEC3"
        },
        {
            "bufferView" : 9,
            "componentType" : 5126,
            "count" : 14,
            "type" : "VEC3"
        },
        {
            "bufferView" : 10,
            "componentType" : 5126,
            "count" : 14,
            "type" : "VEC2"
        },
        {
            "bufferView" : 11,
            "componentType" : 5123,
            "count" : 24,
            "type" : "SCALAR"
        },
        {
            "bufferView" : 12,
            "componentType" : 5126,
            "count" : 29,
            "max" : [
                0.016933679580688477,
                0.003000000026077032,
                0
            ],
            "min" : [
                0,
                -0.003000000026077032,
                -0.016930103302001953
            ],
            "type" : "VEC3"
        },
        {
            "bufferView" : 13,
            "componentType" : 5126,
            "count" : 29,
            "type" : "VEC3"
        },
        {
            "bufferView" : 14,
            "componentType" : 5126,
            "count" : 29,
            "type" : "VEC2"
        },
        {
            "bufferView" : 15,
            "componentType" : 5123,
            "count" : 48,
            "type" : "SCALAR"
        },
        {
            "bufferView" : 16,
            "componentType" : 5126,
            "count" : 2934,
            "max" : [
                0.21214167773723602,
                1,
                1
            ],
            "min" : [
                -0.21214167773723602,
                -1,
                -1
            ],
            "type" : "VEC3"
        },
        {
            "bufferView" : 17,
            "componentType" : 5126,
            "count" : 2934,
            "type" : "VEC3"
        },
        {
            "bufferView" : 18,
            "componentType" : 5126,
            "count" : 2934,
            "type" : "VEC2"
        },
        {
            "bufferView" : 19,
            "componentType" : 5123,
            "count" : 12276,
            "type" : "SCALAR"
        }
    ],
    "bufferViews" : [
        {
            "buffer" : 0,
            "byteLength" : 432,
            "byteOffset" : 0
        },
        {
            "buffer" : 0,
            "byteLength" : 432,
            "byteOffset" : 432
        },
        {
            "buffer" : 0,
            "byteLength" : 288,
            "byteOffset" : 864
        },
        {
            "buffer" : 0,
            "byteLength" : 204,
            "byteOffset" : 1152
        },
        {
            "buffer" : 0,
            "byteLength" : 168,
            "byteOffset" : 1356
        },
        {
            "buffer" : 0,
            "byteLength" : 168,
            "byteOffset" : 1524
        },
        {
            "buffer" : 0,
            "byteLength" : 112,
            "byteOffset" : 1692
        },
        {
            "buffer" : 0,
            "byteLength" : 48,
            "byteOffset" : 1804
        },
        {
            "buffer" : 0,
            "byteLength" : 168,
            "byteOffset" : 1852
        },
        {
            "buffer" : 0,
            "byteLength" : 168,
            "byteOffset" : 2020
        },
        {
            "buffer" : 0,
            "byteLength" : 112,
            "byteOffset" : 2188
        },
        {
            "buffer" : 0,
            "byteLength" : 48,
            "byteOffset" : 2300
        },
        {
            "buffer" : 0,
            "byteLength" : 348,
            "byteOffset" : 2348
        },
        {
            "buffer" : 0,
            "byteLength" : 348,
            "byteOffset" : 2696
        },
        {
            "buffer" : 0,
            "byteLength" : 232,
            "byteOffset" : 3044
        },
        {
            "buffer" : 0,
            "byteLength" : 96,
            "byteOffset" : 3276
        },
        {
            "buffer" : 0,
            "byteLength" : 35208,
            "byteOffset" : 3372
        },
        {
            "buffer" : 0,
            "byteLength" : 35208,
            "byteOffset" : 38580
        },
        {
            "buffer" : 0,
            "byteLength" : 23472,
            "byteOffset" : 73788
        },
        {
            "buffer" : 0,
            "byteLength" : 24552,
            "byteOffset" : 97260
        }
    ],
    "buffers" : [
        {
            "byteLength" : 121812,
            "uri" : "kotlin.bin"
        }
    ]
}
