{
    "asset" : {
        "generator" : "Khronos glTF Blender I/O v1.5.17",
        "version" : "2.0"
    },
    "scene" : 0,
    "scenes" : [
        {
            "name" : "Scene",
            "nodes" : [
                2
            ]
        }
    ],
    "nodes" : [
        {
            "mesh" : 0,
            "name" : "Cube.016",
            "scale" : [
                1.6929916143417358,
                1.6929916143417358,
                1.6929916143417358
            ],
            "translation" : [
                0.09561443328857422,
                -0.14640726149082184,
                -0.132310152053833
            ]
        },
        {
            "mesh" : 1,
            "name" : "Cube.017",
            "scale" : [
                1.6929916143417358,
                1.6929916143417358,
                1.6929916143417358
            ],
            "translation" : [
                0.17460250854492188,
                -0.2331651896238327,
                0.1717672049999237
            ]
        },
        {
            "children" : [
                0,
                1
            ],
            "name" : "Empty.006",
            "scale" : [
                2.234043836593628,
                2.234043836593628,
                2.234043836593628
            ],
            "translation" : [
                0,
                3.9309585094451904,
                0
            ]
        }
    ],
    "materials" : [
        {
            "doubleSided" : true,
            "name" : "Blue",
            "pbrMetallicRoughness" : {
                "baseColorFactor" : [
                    0.012966740876436234,
                    0.08405335247516632,
                    0.5197345614433289,
                    1
                ],
                "metallicFactor" : 0,
                "roughnessFactor" : 0.44999998807907104
            }
        },
        {
            "doubleSided" : true,
            "name" : "White",
            "pbrMetallicRoughness" : {
                "baseColorFactor" : [
                    0.433879554271698,
                    0.433879554271698,
                    0.433879554271698,
                    1
                ],
                "metallicFactor" : 0,
                "roughnessFactor" : 0.44999998807907104
            }
        }
    ],
    "meshes" : [
        {
            "name" : "Cube.018",
            "primitives" : [
                {
                    "attributes" : {
                        "POSITION" : 0,
                        "NORMAL" : 1,
                        "TEXCOORD_0" : 2
                    },
                    "indices" : 3,
                    "material" : 0
                }
            ]
        },
        {
            "name" : "Cube.019",
            "primitives" : [
                {
                    "attributes" : {
                        "POSITION" : 4,
                        "NORMAL" : 5,
                        "TEXCOORD_0" : 6
                    },
                    "indices" : 7,
                    "material" : 1
                }
            ]
        }
    ],
    "accessors" : [
        {
            "bufferView" : 0,
            "componentType" : 5126,
            "count" : 124,
            "max" : [
                0.9381790161132812,
                0.9807455539703369,
                0.1323518007993698
            ],
            "min" : [
                -0.9287490844726562,
                -1.1083176136016846,
                -0.12832245230674744
            ],
            "type" : "VEC3"
        },
        {
            "bufferView" : 1,
            "componentType" : 5126,
            "count" : 124,
            "type" : "VEC3"
        },
        {
            "bufferView" : 2,
            "componentType" : 5126,
            "count" : 124,
            "type" : "VEC2"
        },
        {
            "bufferView" : 3,
            "componentType" : 5123,
            "count" : 540,
            "type" : "SCALAR"
        },
        {
            "bufferView" : 4,
            "componentType" : 5126,
            "count" : 364,
            "max" : [
                0.5197839736938477,
                0.6339112520217896,
                0.12178914248943329
            ],
            "min" : [
                -0.638486385345459,
                -0.6787874698638916,
                -0.12178941071033478
            ],
            "type" : "VEC3"
        },
        {
            "bufferView" : 5,
            "componentType" : 5126,
            "count" : 364,
            "type" : "VEC3"
        },
        {
            "bufferView" : 6,
            "componentType" : 5126,
            "count" : 364,
            "type" : "VEC2"
        },
        {
            "bufferView" : 7,
            "componentType" : 5123,
            "count" : 2052,
            "type" : "SCALAR"
        }
    ],
    "bufferViews" : [
        {
            "buffer" : 0,
            "byteLength" : 1488,
            "byteOffset" : 0
        },
        {
            "buffer" : 0,
            "byteLength" : 1488,
            "byteOffset" : 1488
        },
        {
            "buffer" : 0,
            "byteLength" : 992,
            "byteOffset" : 2976
        },
        {
            "buffer" : 0,
            "byteLength" : 1080,
            "byteOffset" : 3968
        },
        {
            "buffer" : 0,
            "byteLength" : 4368,
            "byteOffset" : 5048
        },
        {
            "buffer" : 0,
            "byteLength" : 4368,
            "byteOffset" : 9416
        },
        {
            "buffer" : 0,
            "byteLength" : 2912,
            "byteOffset" : 13784
        },
        {
            "buffer" : 0,
            "byteLength" : 4104,
            "byteOffset" : 16696
        }
    ],
    "buffers" : [
        {
            "byteLength" : 20800,
            "uri" : "css1.bin"
        }
    ]
}
