{
    "asset": {
        "version": "2.0",
        "generator": "Open Asset Import Library (assimp v5.2.9116af3d)"
    },
    "extensionsUsed": [
        "KHR_materials_pbrSpecularGlossiness",
        "FB_ngon_encoding"
    ],
    "accessors": [
        {
            "bufferView": 0,
            "byteOffset": 0,
            "componentType": 5126,
            "count": 6050,
            "type": "VEC3",
            "max": [
                1.2254949808120728,
                0.19091694056987763,
                1.1900849342346192
            ],
            "min": [
                -0.9603302478790283,
                -0.18903402984142304,
                -1.2727054357528687
            ]
        },
        {
            "bufferView": 1,
            "byteOffset": 0,
            "componentType": 5126,
            "count": 6050,
            "type": "VEC3",
            "max": [
                0.9999600648880005,
                1.0,
                0.9999999403953552
            ],
            "min": [
                -0.999453604221344,
                -1.0,
                -1.0
            ]
        },
        {
            "bufferView": 2,
            "byteOffset": 0,
            "componentType": 5126,
            "count": 6050,
            "type": "VEC2",
            "max": [
                0.8661782741546631,
                0.9610982537269592
            ],
            "min": [
                0.1338217407464981,
                0.008821725845336914
            ]
        },
        {
            "bufferView": 3,
            "byteOffset": 0,
            "componentType": 5125,
            "count": 36288,
            "type": "SCALAR",
            "max": [
                6049
            ],
            "min": [
                0
            ]
        },
        {
            "bufferView": 4,
            "byteOffset": 0,
            "componentType": 5126,
            "count": 23042,
            "type": "VEC3",
            "max": [
                0.9274483919143677,
                0.12832242250442506,
                0.9807455539703369
            ],
            "min": [
                -0.918187141418457,
                -0.1323518306016922,
                -1.1047695875167847
            ]
        },
        {
            "bufferView": 5,
            "byteOffset": 0,
            "componentType": 5126,
            "count": 23042,
            "type": "VEC3",
            "max": [
                0.9999632239341736,
                0.9999999403953552,
                1.0
            ],
            "min": [
                -0.9999766945838928,
                -0.9999999403953552,
                -1.0
            ]
        },
        {
            "bufferView": 6,
            "byteOffset": 0,
            "componentType": 5126,
            "count": 23042,
            "type": "VEC2",
            "max": [
                0.8570897579193115,
                0.9632624983787537
            ],
            "min": [
                0.14285904169082642,
                0.022526860237121583
            ]
        },
        {
            "bufferView": 7,
            "byteOffset": 0,
            "componentType": 5125,
            "count": 138240,
            "type": "SCALAR",
            "max": [
                23041
            ],
            "min": [
                0
            ]
        }
    ],
    "buffers": [
        {
            "byteLength": 1629056,
            "uri": "ukqbogpm.bin"
        }
    ],
    "bufferViews": [
        {
            "buffer": 0,
            "byteOffset": 0,
            "byteLength": 72600,
            "target": 34962
        },
        {
            "buffer": 0,
            "byteOffset": 72600,
            "byteLength": 72600,
            "target": 34962
        },
        {
            "buffer": 0,
            "byteOffset": 145200,
            "byteLength": 48400,
            "target": 34962
        },
        {
            "buffer": 0,
            "byteOffset": 193600,
            "byteLength": 145152,
            "target": 34963
        },
        {
            "buffer": 0,
            "byteOffset": 338752,
            "byteLength": 276504,
            "target": 34962
        },
        {
            "buffer": 0,
            "byteOffset": 615256,
            "byteLength": 276504,
            "target": 34962
        },
        {
            "buffer": 0,
            "byteOffset": 891760,
            "byteLength": 184336,
            "target": 34962
        },
        {
            "buffer": 0,
            "byteOffset": 1076096,
            "byteLength": 552960,
            "target": 34963
        }
    ],
    "materials": [
        {
            "name": "White",
            "pbrMetallicRoughness": {
                "baseColorFactor": [
                    0.800000011920929,
                    0.800000011920929,
                    0.800000011920929,
                    1.0
                ],
                "metallicFactor": 0.0
            },
            "extensions": {
                "KHR_materials_pbrSpecularGlossiness": {
                    "diffuseFactor": [
                        0.800000011920929,
                        0.800000011920929,
                        0.800000011920929,
                        1.0
                    ]
                }
            }
        },
        {
            "name": "Orange",
            "pbrMetallicRoughness": {
                "baseColorFactor": [
                    0.800000011920929,
                    0.800000011920929,
                    0.800000011920929,
                    1.0
                ],
                "metallicFactor": 0.0
            },
            "extensions": {
                "KHR_materials_pbrSpecularGlossiness": {
                    "diffuseFactor": [
                        0.800000011920929,
                        0.800000011920929,
                        0.800000011920929,
                        1.0
                    ]
                }
            }
        }
    ],
    "meshes": [
        {
            "primitives": [
                {
                    "extensions": {
                        "FB_ngon_encoding": {}
                    },
                    "mode": 4,
                    "material": 0,
                    "indices": 3,
                    "attributes": {
                        "POSITION": 0,
                        "NORMAL": 1,
                        "TEXCOORD_0": 2
                    }
                }
            ]
        },
        {
            "primitives": [
                {
                    "extensions": {
                        "FB_ngon_encoding": {}
                    },
                    "mode": 4,
                    "material": 1,
                    "indices": 7,
                    "attributes": {
                        "POSITION": 4,
                        "NORMAL": 5,
                        "TEXCOORD_0": 6
                    }
                }
            ]
        }
    ],
    "nodes": [
        {
            "name": "<BlenderRoot>",
            "children": [
                1
            ]
        },
        {
            "name": "Html",
            "children": [
                2,
                3,
                4
            ]
        },
        {
            "name": "Cube.020",
            "matrix": [
                2.2401247024536135,
                0.0,
                0.0,
                0.0,
                0.0,
                2.2401247024536135,
                0.0,
                0.0,
                0.0,
                0.0,
                2.2401247024536135,
                0.0,
                -0.38328924775123598,
                -0.31127017736434939,
                3.445413589477539,
                1.0
            ],
            "mesh": 0
        },
        {
            "name": "Cube.019",
            "matrix": [
                3.7925124168395998,
                0.0,
                0.0,
                0.0,
                0.0,
                3.7925124168395998,
                0.0,
                0.0,
                0.0,
                0.0,
                3.7925124168395998,
                0.0,
                -0.03178448975086212,
                0.2942279875278473,
                3.624826669692993,
                1.0
            ],
            "mesh": 1
        },
        {
            "name": "Empty.009",
            "matrix": [
                2.2401247024536135,
                0.0,
                0.0,
                0.0,
                0.0,
                2.2401247024536135,
                0.0,
                0.0,
                0.0,
                0.0,
                2.2401247024536135,
                0.0,
                0.0,
                0.0,
                3.9527971744537355,
                1.0
            ]
        }
    ],
    "scenes": [
        {
            "nodes": [
                0
            ]
        }
    ],
    "scene": 0
}