{
  "accessors": [
    {
      "bufferView": 2,
      "componentType": 5126,
      "count": 6012,
      "max": [
        0.7879179120063782,
        0.4272741675376892,
        0.613983690738678
      ],
      "min": [
        -0.8487849831581116,
        -0.4272741675376892,
        -0.5658929944038391
      ],
      "type": "VEC3"
    },
    {
      "bufferView": 2,
      "byteOffset": 72144,
      "componentType": 5126,
      "count": 6012,
      "max": [
        0.9999781847000122,
        0.9999132752418518,
        0.9999791979789734
      ],
      "min": [
        -0.9998552203178406,
        -0.9999132752418518,
        -0.9999945163726807
      ],
      "type": "VEC3"
    },
    {
      "bufferView": 1,
      "componentType": 5126,
      "count": 6012,
      "max": [
        0.8939589858055115,
        0.8069918751716614
      ],
      "min": [
        0.07560750097036362,
        0.21705350279808044
      ],
      "type": "VEC2"
    },
    {
      "bufferView": 0,
      "componentType": 5125,
      "count": 35856,
      "type": "SCALAR"
    }
  ],
  "asset": {
    "extras": {
      "author": "photogrammetryblender3D (https://sketchfab.com/photogrammetryblender3D)",
      "license": "CC-BY-4.0 (http://creativecommons.org/licenses/by/4.0/)",
      "source": "https://sketchfab.com/3d-models/php-elephant-in-3d-e8f9492323a64cbc9beaa5c212538ed9",
      "title": "PHP Elephant in 3D"
    },
    "generator": "Sketchfab-12.68.0",
    "version": "2.0"
  },
  "bufferViews": [
    {
      "buffer": 0,
      "byteLength": 143424,
      "name": "floatBufferViews",
      "target": 34963
    },
    {
      "buffer": 0,
      "byteLength": 48096,
      "byteOffset": 143424,
      "byteStride": 8,
      "name": "floatBufferViews",
      "target": 34962
    },
    {
      "buffer": 0,
      "byteLength": 144288,
      "byteOffset": 191520,
      "byteStride": 12,
      "name": "floatBufferViews",
      "target": 34962
    }
  ],
  "buffers": [
    {
      "byteLength": 335808,
      "uri": "scene.bin"
    }
  ],
  "images": [
    {
      "uri": "textures/Textured_baseColor.jpeg"
    }
  ],
  "materials": [
    {
      "doubleSided": true,
      "emissiveTexture": {
        "index": 0
      },
      "name": "Textured",
      "pbrMetallicRoughness": {
        "baseColorTexture": {
          "index": 0
        },
        "metallicFactor": 0.0
      }
    }
  ],
  "meshes": [
    {
      "name": "Object_0",
      "primitives": [
        {
          "attributes": {
            "NORMAL": 1,
            "POSITION": 0,
            "TEXCOORD_0": 2
          },
          "indices": 3,
          "material": 0,
          "mode": 4
        }
      ]
    }
  ],
  "nodes": [
    {
      "children": [
        1
      ],
      "matrix": [
        2.293445348739624,
        0.0,
        0.0,
        0.0,
        0.0,
        5.092471663780405e-16,
        -2.293445348739624,
        0.0,
        0.0,
        2.293445348739624,
        5.092471663780405e-16,
        0.0,
        0.0,
        0.0,
        0.0,
        1.0
      ],
      "name": "Sketchfab_model"
    },
    {
      "children": [
        2
      ],
      "name": "model_522909486818.obj.cleaner.materialmerger.gles"
    },
    {
      "mesh": 0,
      "name": "Object_2"
    }
  ],
  "samplers": [
    {
      "magFilter": 9729,
      "minFilter": 9987,
      "wrapS": 10497,
      "wrapT": 10497
    }
  ],
  "scene": 0,
  "scenes": [
    {
      "name": "Sketchfab_Scene",
      "nodes": [
        0
      ]
    }
  ],
  "textures": [
    {
      "sampler": 0,
      "source": 0
    }
  ]
}
